<svg xmlns="http://www.w3.org/2000/svg" viewBox="0 0 512 512" width="512" height="512">
  <defs>
    <linearGradient id="bg" x1="0%" y1="0%" x2="100%" y2="100%">
      <stop offset="0%" style="stop-color:#f43f5e"/>
      <stop offset="100%" style="stop-color:#e11d48"/>
    </linearGradient>
  </defs>
  
  <!-- Background -->
  <rect width="512" height="512" rx="80" ry="80" fill="url(#bg)"/>
  
  <!-- Decorative circle -->
  <circle cx="370" cy="140" r="80" fill="rgba(255,255,255,0.12)"/>
  
  <!-- Nail polish bottle -->
  <!-- Cap -->
  <rect x="230" y="120" width="52" height="42" rx="6" fill="white"/>
  <!-- Brush stick -->
  <rect x="248" y="162" width="16" height="30" fill="white"/>
  <!-- Neck -->
  <rect x="220" y="192" width="72" height="30" rx="4" fill="white"/>
  <!-- Body -->
  <rect x="200" y="222" width="112" height="150" rx="18" fill="white"/>
  
  <!-- Sparkles -->
  <!-- Sparkle 1 (top right) -->
  <path d="M400,110 L406,124 L420,130 L406,136 L400,150 L394,136 L380,130 L394,124 Z" fill="white"/>
  <!-- Sparkle 2 (bottom left) -->
  <path d="M130,370 L134,380 L144,384 L134,388 L130,398 L126,388 L116,384 L126,380 Z" fill="white"/>
  <!-- Sparkle 3 (bottom right) -->
  <path d="M400,350 L403,358 L411,361 L403,364 L400,372 L397,364 L389,361 L397,358 Z" fill="white"/>
  <!-- Small dots -->
  <circle cx="150" cy="150" r="4" fill="rgba(255,255,255,0.6)"/>
  <circle cx="380" cy="400" r="3" fill="rgba(255,255,255,0.5)"/>
  <circle cx="100" cy="300" r="3" fill="rgba(255,255,255,0.4)"/>
</svg>
